# xmcd CD database file
#
# Track frame offsets:
#	150
#	24559
#	62451
#	96747
#	133887
#	174948
#
# Disc length: 2728 seconds
#
# Revision: 0
# Processed by: cddbd v1.5.2PL0 Copyright (c) Steve Scherf et al.
# Submitted via: CDex 1.51
#
DISCID=4e0aa606
DTITLE=Kenny Millions - Humanplexity
DYEAR=1900
DGENRE=Jazz
TTITLE0=Serious Fun
TTITLE1=Quick Majestic Death In Manhattan
TTITLE2=Ha Ha Ha
TTITLE3=Good Woman
TTITLE4=Lick My Elbow
TTITLE5=Plexity
EXTD=
EXTT0=
EXTT1=
EXTT2=
EXTT3=
EXTT4=
EXTT5=
PLAYORDER=
